<svg width="1200" height="780" viewBox="0 0 1200 780" fill="none" xmlns="http://www.w3.org/2000/svg">
  <rect width="1200" height="780" rx="40" fill="#140D10"/>
  <rect x="52" y="52" width="1096" height="676" rx="32" fill="#1A1216" stroke="#4A2D34"/>
  <rect x="84" y="112" width="508" height="556" rx="30" fill="#130E12" stroke="#3A2730"/>
  <text x="126" y="174" fill="#E39AA2" font-family="Inter, Arial" font-size="18" letter-spacing="4">RULE ENGINE</text>
  <text x="126" y="232" fill="#F7F4EE" font-family="Inter, Arial" font-size="30">IF symptom = fever</text>
  <text x="126" y="278" fill="#CDBCC0" font-family="Inter, Arial" font-size="24">AND white-cell-count > threshold</text>
  <text x="126" y="324" fill="#CDBCC0" font-family="Inter, Arial" font-size="24">THEN suggest infection workup</text>
  <rect x="664" y="146" width="396" height="480" rx="28" fill="#130E12" stroke="#3A2730"/>
  <circle cx="862" cy="226" r="22" fill="#F7F4EE"/>
  <circle cx="766" cy="334" r="22" fill="#F7F4EE"/>
  <circle cx="958" cy="334" r="22" fill="#F7F4EE"/>
  <circle cx="720" cy="470" r="22" fill="#F7F4EE"/>
  <circle cx="862" cy="470" r="22" fill="#F7F4EE"/>
  <circle cx="1004" cy="470" r="22" fill="#F7F4EE"/>
  <path d="M862 226L766 334M862 226L958 334M766 334L720 470M766 334L862 470M958 334L862 470M958 334L1004 470" stroke="#E39AA2" stroke-width="10" stroke-linecap="round"/>
  <text x="708" y="574" fill="#CDBCC0" font-family="Inter, Arial" font-size="18">Great in narrow domains. Costly to maintain. Brittle when the world shifts.</text>
</svg>