<svg width="1200" height="780" viewBox="0 0 1200 780" fill="none" xmlns="http://www.w3.org/2000/svg">
  <rect width="1200" height="780" rx="40" fill="#0D0D12"/>
  <rect x="52" y="52" width="1096" height="676" rx="32" fill="url(#bg)" stroke="rgba(255,255,255,0.08)"/>
  <circle cx="300" cy="390" r="145" stroke="#D8B06B" stroke-width="24" opacity="0.8"/>
  <circle cx="300" cy="390" r="76" stroke="#D8B06B" stroke-width="16" opacity="0.45"/>
  <circle cx="300" cy="390" r="18" fill="#F7E6C6"/>
  <path d="M300 245V150M300 630V535M155 390H62M538 390H445M198 288L131 221M402 492L469 559M198 492L131 559M402 288L469 221" stroke="#D8B06B" stroke-width="14" stroke-linecap="round" opacity="0.55"/>
  <rect x="574" y="132" width="430" height="516" rx="28" fill="#14141C" stroke="#2C2A33"/>
  <path d="M624 242H946" stroke="#7FD8D4" stroke-width="4" stroke-linecap="round" stroke-dasharray="8 12" opacity="0.75"/>
  <path d="M624 318H946" stroke="#E7D7BC" stroke-width="2.5" stroke-linecap="round" stroke-dasharray="1 14" opacity="0.8"/>
  <path d="M624 394H946" stroke="#7FD8D4" stroke-width="4" stroke-linecap="round" stroke-dasharray="8 12" opacity="0.5"/>
  <path d="M624 470H946" stroke="#E7D7BC" stroke-width="2.5" stroke-linecap="round" stroke-dasharray="1 14" opacity="0.75"/>
  <rect x="642" y="174" width="112" height="36" rx="18" fill="#1E1C26" stroke="#3A3946"/>
  <text x="698" y="198" fill="#F4E6CB" font-family="Inter, Arial" font-size="18" text-anchor="middle">1837</text>
  <text x="642" y="584" fill="#D8B06B" font-family="Inter, Arial" font-size="18" letter-spacing="4">MECHANIZED THOUGHT</text>
  <text x="642" y="616" fill="#CFC7BB" font-family="Inter, Arial" font-size="25">Logic, notation, and programmable procedure</text>
  <g opacity="0.9">
    <rect x="94" y="104" width="146" height="190" rx="18" fill="#16161F" stroke="#2C2A33"/>
    <rect x="116" y="128" width="102" height="14" rx="7" fill="#D8B06B" opacity="0.8"/>
    <rect x="116" y="164" width="102" height="8" rx="4" fill="#E7D7BC" opacity="0.65"/>
    <rect x="116" y="188" width="82" height="8" rx="4" fill="#E7D7BC" opacity="0.4"/>
    <rect x="116" y="212" width="98" height="8" rx="4" fill="#E7D7BC" opacity="0.55"/>
    <rect x="116" y="236" width="70" height="8" rx="4" fill="#E7D7BC" opacity="0.35"/>
  </g>
  <defs>
    <linearGradient id="bg" x1="93" y1="104" x2="1095" y2="680" gradientUnits="userSpaceOnUse">
      <stop stop-color="#121217"/>
      <stop offset="1" stop-color="#0B0C12"/>
    </linearGradient>
  </defs>
</svg>